<svg xmlns="http://www.w3.org/2000/svg" width="72" height="71" viewBox="0 0 72 71">
    <g fill="none" fill-rule="evenodd">
        <g fill-rule="nonzero">
            <g transform="translate(-120 -52) translate(120 52)">
                <ellipse cx="36.078" cy="35.539" fill="#32FF14" rx="35.883" ry="35.384"/>
                <path fill="#14499C" d="M18.117 39.976l3.913-3.859 9.587 6.251-1.526 1.505c-3.287 3.242-3.287 8.567 0 11.808 3.287 3.241 8.687 3.241 11.974 0 3.287-3.241 3.287-8.566 0-11.808l-1.526-1.505 9.587-6.25 3.952 3.897 4.03-3.975L36.04 14.277 14.048 35.963l4.07 4.013zM36.04 22.265l9.9 9.762-9.9 6.483-9.9-6.483 9.9-9.762zm-1.917 29.442c-1.096-1.08-1.096-2.779 0-3.86l1.956-1.929 1.957 1.93c1.095 1.08 1.095 2.778 0 3.859-1.096 1.041-2.857 1.041-3.913 0z"/>
            </g>
        </g>
    </g>
</svg>
