<svg xmlns="http://www.w3.org/2000/svg" width="145" height="26" viewBox="0 0 145 26">
    <g fill="none" fill-rule="evenodd">
        <g fill="#0046A0" fill-rule="nonzero">
            <g>
                <path d="M5.104 24.917H0V9.534C0 3.194 3.37 0 10.055 0c3.618 0 6.095 1.18 7.432 3.588C18.824 1.18 21.301 0 24.919 0c6.936 0 10.008 3.242 10.008 9.534v15.383h-5.1V9.534c0-3.342-1.09-4.817-4.906-4.817s-5.004 1.475-5.004 4.817v15.383h-4.954V9.534c0-3.342-1.09-4.817-4.906-4.817-3.817 0-4.955 1.475-4.955 4.817l.002 15.383zM38.102 15.157v-4.316C38.102 3.81 41.742 0 49.265 0c7.715 0 11.063 3.614 11.063 10.84v4.32c0 6.979-3.64 10.84-11.063 10.84-7.766.004-11.163-3.612-11.163-10.843zm16.934-4.424c0-4.48-1.292-6.4-5.775-6.4-4.482 0-5.867 1.92-5.867 6.4v4.587c0 4.426 1.293 6.347 5.867 6.347 4.48 0 5.775-1.868 5.775-6.347v-4.587zM63.504 24.917V0h5.292v24.917h-5.292zm15.85-23.834h6.436l-8.789 9.513c-.646.623-.998 1.202-.998 1.73 0 .432.3 1.01.949 1.683l9.836 10.908H80.35l-7.441-8.314c-1.35-1.488-1.997-2.93-1.997-4.42 0-1.537.4-2.402 1.997-4.085l6.445-7.015zM106.898 17.97c0 5.572-3.142 8.03-10.298 8.03-6.526 0-9.812-2.56-9.812-7.729 0-5.37 3.48-7.586 9.862-7.586h5.317V8.232c0-2.96-1.879-3.815-5.705-3.815-2.95 0-5.22.301-6.866.954V.854C91.039.301 93.216 0 95.972 0c7.01 0 10.926 2.258 10.926 8.236v9.734zm-5.292-3.887h-5.52c-3.464 0-5.064 1.083-5.064 3.843 0 2.869 1.905 3.74 4.915 3.74 3.761 0 5.667-.81 5.667-4.221l.002-3.362zM114.278 24.917h-5.263V9.534c0-6.34 3.471-9.534 10.36-9.534 3.726 0 6.279 1.18 7.657 3.588C128.409 1.18 130.962 0 134.689 0 141.835 0 145 3.242 145 9.534v15.383h-5.248V9.534c0-3.342-1.122-4.817-5.054-4.817-3.933 0-5.156 1.475-5.156 4.817v15.383h-5.098V9.534c0-3.342-1.122-4.817-5.054-4.817-3.933 0-5.105 1.475-5.105 4.817l-.007 15.383z" transform="translate(-206 -75) translate(206 75)"/>
            </g>
        </g>
    </g>
</svg>
